<?xml version="1.0" ?><svg width="31" id="Layer_1" style="enableBackground:new 0 0 52 52;" version="1.1" viewBox="0 0 52 52" xml:space="preserve" xmlns="http://www.w3.org/2000/svg" xmlns:xlink="http://www.w3.org/1999/xlink"><style type="text/css">
	.st0{fill:#231F20;}
</style><g><g><path class="st0" d="M6.7784867,2.23824c13.2043686,0.0025299,26.4087353,0.00506,39.613102,0.0075898    c-0.2651634-0.6401651-0.5303307-1.2803302-0.7954941-1.9204952c-1.5107841,1.6957599-2.9071579,3.2983315-2.8479538,5.5511351    c0.008316,0.3164296,0.6842232,0.63869,0.793396,0.9183559c1.2604523,3.2288609,1.5577354,3.3951836,1.610321,6.0893898    c0.0564384,2.8915501,0.0714569,5.7845621,0.1071777,8.6764212c0.0714493,5.7842827,0.1429024,11.5685635,0.2143517,17.3528461    c0.0347939,2.8166313,0.8847389,6.9349937-1.0514946,9.0053902c-2.0183067,2.1581535-6.0673256,1.3155365-8.9877586,1.328907    c-5.5540409,0.025425-11.1080799,0.0508461-16.6621189,0.0762711c-2.8338985,0.0129738-6.0007753,0.3910446-8.8211212,0.0403824    c-4.1542034-0.51651-3.4731922-2.7581749-3.5169125-6.425972c-0.0706425-5.926342-0.1412845-11.852684-0.2119269-17.7790279    c-0.0608134-5.1017799-2.1657743-16.63797,3.2688956-19.2319908c0.6972284-0.3327937,0.6644392-1.2658653,0.2276859-1.7668996    C8.4661016,2.7236598,7.2691922,1.7069675,5.6937366,0.674597C5.504467,1.3733984,5.315197,2.0722001,5.1259274,2.7710016    c0.3831053-0.0473001,0.7662106-0.0946,1.1493158-0.1418998c1.4184437-0.1751277,1.4360056-2.4272959,0-2.25    C5.892138,0.4264016,5.5090327,0.4737016,5.1259274,0.5210015C4.0455427,0.6543907,3.5606346,1.9637711,4.5581183,2.6174059    c1.4132447,0.8052626,2.6030879,1.8499722,3.5695291,3.1341286C8.2035427,5.1625676,8.279438,4.5736012,8.3553333,3.9846346    c-4.8717875,2.3253505-4.5728254,5.27318-4.5127883,10.3098383c0.0941896,7.9017897,0.1883793,15.8035803,0.2825694,23.7053719    c0.0235472,1.9754448,0.0470948,3.9508934,0.070642,5.926342c0.0169129,1.4188538-0.3965085,4.5941467,0.0706425,5.926342    c0.2824426,0.8054543,0.2772393,1.1369934,0.9865952,1.6244583c1.6353459,1.1238022,6.57371,0.1288605,8.6183987,0.1194992    c3.9204979-0.0179482,7.8409977-0.0358925,11.7614956-0.0538406c3.9204979-0.0179443,7.8409958-0.0358925,11.7614937-0.0538406    c2.4178886-0.0110664,6.6411209,0.9260216,8.8554802-0.2035904c3.1560478-1.609993,1.5061455-9.7309532,1.473526-12.3717308    c-0.0912971-7.3910275-0.1825981-14.782053-0.2738953-22.1730804c-0.033329-2.6983271,0.291256-5.7460957-0.4532471-8.3892708    c-0.9059448-3.2163291-2.8026924-3.0747552,0.1908417-6.4348063c0.6332664-0.7108037,0.2192383-1.9203007-0.7954979-1.9204952    c-13.2043686-0.00253-26.4087353-0.0050599-39.613102-0.0075899C5.3307071-0.0120375,5.3283329,2.237962,6.7784867,2.23824    L6.7784867,2.23824z"/></g><g><path class="st0" d="M4.9034505,8.8657217c13.1666679,0,26.333334,0,39.5,0c1.4477692,0,1.4501648-2.2499995,0-2.2499995    c-13.166666,0-26.3333321,0-39.5,0C3.455683,6.6157222,3.453285,8.8657217,4.9034505,8.8657217L4.9034505,8.8657217z"/></g><g><path class="st0" d="M31.8613262,8.6196089c0.2736111,2.6125593,0.429697,5.2552557,0.2423229,7.8810377    c-0.165247,2.3156929-0.8847847,3.6780605-2.8094254,5.1166382c-1.3065319,0.9765701-3.159544,1.9787807-4.8517189,1.5198669    c-2.7182407-0.7371826-4.5174446-4.6566505-4.7177944-7.1353989c-0.1987591-2.4590769,0.2570286-4.9137611,0.0324326-7.3820801    c-0.1301422-1.4302502-2.3813839-1.4439077-2.25,0c0.344038,3.7809687-0.7954006,7.7971611,0.9534149,11.3498154    c1.2513962,2.5421677,3.5939445,5.4315491,6.672226,5.5323009c2.7446175,0.0898304,6.3806591-2.0079384,7.9730434-4.1796684    c2.3627663-3.2223911,1.3874054-9.0558958,1.005497-12.7025118C33.9620247,7.1940103,31.7104206,7.1786909,31.8613262,8.6196089    L31.8613262,8.6196089z"/></g></g></svg>